<mxfile host="app.diagrams.net" modified="2023-04-10T20:01:39.812Z" agent="Mozilla/5.0 (Windows NT 10.0; Win64; x64) AppleWebKit/537.36 (KHTML, like Gecko) Chrome/111.0.0.0 Safari/537.36" version="21.1.5" etag="pceyGI9nObEG3dcG7h6L" type="github">
  <diagram name="Page-1" id="zxt1cYOLVDK_c5PfSp7U">
    <mxGraphModel>
      <root>
        <mxCell id="0" />
        <mxCell id="1" parent="0" />
      </root>
    </mxGraphModel>
  </diagram>
</mxfile>
